<svg width="22" height="22" fill="none" xmlns="http://www.w3.org/2000/svg">
  <g filter="url(#a)">
    <rect width="22" height="22" rx="3" fill="#2B3F55"/>
    <path fill-rule="evenodd" clip-rule="evenodd" d="M7.393 10.495C7.65 8.461 9.24 7 11.023 7c.866 0 1.668.333 2.307.908a1 1 0 0 0 1.338-1.487C13.691 5.541 12.42 5 11.024 5c-3.008 0-5.36 2.464-5.639 5.471l-.388-.5a.555.555 0 0 0-.37-.228.54.54 0 0 0-.418.116.56.56 0 0 0-.207.388.572.572 0 0 0 .132.42l1.586 2.018a.782.782 0 0 0 .613.31.793.793 0 0 0 .616-.299l1.781-2.051a.565.565 0 0 0-.048-.772.536.536 0 0 0-.367-.127.541.541 0 0 0-.444.206l-.478.543Z" fill="#4D7299"/>
    <path fill-rule="evenodd" clip-rule="evenodd" d="M14.663 11.514c-.21 2.01-1.799 3.489-3.618 3.489a3.465 3.465 0 0 1-2.369-.949 1 1 0 0 0-1.36 1.466 5.465 5.465 0 0 0 3.729 1.483c3.02 0 5.402-2.465 5.624-5.48l.34.428a.547.547 0 1 0 .857-.679L16.29 9.306a.774.774 0 0 0-1.223-.01l-1.628 1.998a.543.543 0 0 0 .048.751.54.54 0 0 0 .365.124.547.547 0 0 0 .442-.2l.37-.455Z" fill="#88A5C3"/>
  </g>
  <defs>
    <filter id="a" x="0" y="0" width="22" height="22" filterUnits="userSpaceOnUse" color-interpolation-filters="sRGB">
      <feFlood flood-opacity="0" result="BackgroundImageFix"/>
      <feBlend in="SourceGraphic" in2="BackgroundImageFix" result="shape"/>
      <feColorMatrix in="SourceAlpha" values="0 0 0 0 0 0 0 0 0 0 0 0 0 0 0 0 0 0 127 0" result="hardAlpha"/>
      <feOffset dy="1"/>
      <feComposite in2="hardAlpha" operator="arithmetic" k2="-1" k3="1"/>
      <feColorMatrix values="0 0 0 0 1 0 0 0 0 1 0 0 0 0 1 0 0 0 0.05 0"/>
      <feBlend in2="shape" result="effect1_innerShadow_82_10"/>
    </filter>
  </defs>
</svg>