<svg width="22" height="22" viewBox="0 0 22 22" fill="none" xmlns="http://www.w3.org/2000/svg">
<path fill-rule="evenodd" clip-rule="evenodd" d="M6.03257 9.98355C6.21119 7.14925 8.4184 5 11 5C12.1899 5 13.287 5.44839 14.1514 6.20963C14.5659 6.57464 15.1977 6.53455 15.5628 6.12009C15.9278 5.70562 15.8877 5.07372 15.4732 4.70871C14.2679 3.6472 12.7079 3 11 3C7.22919 3 4.242 6.11534 4.03264 9.92713L3.27736 8.97539C3.22162 8.8983 3.15081 8.83327 3.06919 8.78424C2.98757 8.7352 2.89684 8.70317 2.80248 8.69008C2.70811 8.67699 2.61207 8.6831 2.52014 8.70806C2.42821 8.73302 2.34229 8.7763 2.26759 8.83529C2.19288 8.89429 2.13093 8.96777 2.08547 9.0513C2.04001 9.13484 2.01199 9.2267 2.00308 9.32134C1.99418 9.41598 2.00459 9.51144 2.03368 9.60195C2.06277 9.69247 2.10994 9.77617 2.17234 9.84799L4.2037 12.3767C4.29618 12.497 4.41501 12.5946 4.55111 12.6621C4.68721 12.7296 4.83698 12.7652 4.98896 12.7661C5.14013 12.7649 5.2892 12.7307 5.42568 12.6658C5.56216 12.601 5.68274 12.5071 5.77893 12.3907L8.06113 9.81985C8.17797 9.68204 8.23686 9.50449 8.22546 9.32436C8.21407 9.14422 8.13328 8.97547 8 8.85341C7.86826 8.74435 7.70085 8.68756 7.52978 8.69391C7.42145 8.69041 7.31377 8.71187 7.21509 8.75661C7.11642 8.80136 7.02941 8.8682 6.96082 8.95193L6.03257 9.98355Z" fill="#307FE2"/>
<path fill-rule="evenodd" clip-rule="evenodd" d="M15.9758 10.8424C15.8799 13.7637 13.6349 16.0028 10.9999 16.0028C9.76559 16.0028 8.63042 15.5202 7.75183 14.7059C7.34678 14.3304 6.71407 14.3544 6.33864 14.7595C5.9632 15.1645 5.98722 15.7973 6.39227 16.1727C7.61488 17.3059 9.22734 18.0028 10.9999 18.0028C14.8286 18.0028 17.8495 14.791 17.9749 10.8995L18.6821 11.7907C18.7379 11.8678 18.8087 11.9328 18.8903 11.9818C18.9719 12.0309 19.0626 12.0629 19.157 12.076C19.2514 12.0891 19.3474 12.083 19.4393 12.058C19.5313 12.033 19.6172 11.9898 19.6919 11.9308C19.7666 11.8718 19.8285 11.7983 19.874 11.7147C19.9195 11.6312 19.9475 11.5394 19.9564 11.4447C19.9653 11.3501 19.9549 11.2546 19.9258 11.1641C19.8967 11.0736 19.8495 10.9899 19.7871 10.9181L17.7558 8.38939C17.6633 8.26905 17.5445 8.17141 17.4084 8.10392C17.2723 8.03643 17.1225 8.00089 16.9705 8C16.8193 8.00117 16.6703 8.03538 16.5338 8.10023C16.3973 8.16507 16.2767 8.25897 16.1805 8.37531L14.0834 10.9462C13.9665 11.084 13.9076 11.2616 13.919 11.4417C13.9304 11.6218 14.0112 11.7906 14.1445 11.9126C14.2762 12.0217 14.4436 12.0785 14.6147 12.0721C14.723 12.0756 14.8307 12.0542 14.9294 12.0094C15.0281 11.9647 15.1151 11.8979 15.1837 11.8141L15.9758 10.8424ZM16.9494 9.64811C16.9592 9.64782 16.9691 9.64768 16.979 9.64768C16.9798 9.64768 16.9806 9.64768 16.9815 9.64768L16.9658 9.62792L16.9494 9.64811Z" fill="#CCE3FF"/>
</svg>
