<?xml version="1.0" encoding="UTF-8"?><svg id="Layer_2" xmlns="http://www.w3.org/2000/svg" viewBox="0 0 248.5 80.6"><defs><style>.cls-1{fill:#fff;}.cls-2{fill:#2a7de1;}</style></defs><g id="Layer_1-2"><g id="new_logo"><g><polygon class="cls-2" points="0 24.56 0 .53 51.39 .53 51.39 24.56 38.54 24.56 38.54 13.38 12.85 13.38 12.85 24.56 0 24.56"/><rect class="cls-2" x="18.97" y="19.47" width="13.46" height="26.92" rx="4" ry="4"/><polygon class="cls-2" points="0 30.69 0 48.97 0 55.41 25.7 80.06 51.39 55.41 51.39 48.97 51.39 30.69 38.54 30.69 38.54 48.97 25.7 61.63 13.05 48.97 13.05 30.69 0 30.69"/></g><g><path class="cls-1" d="M65.01,37.25V.53h13.27c4.32,0,7.94,1.41,10.85,4.22,2.91,2.82,4.36,6.43,4.36,10.83v6.61c0,4.42-1.45,8.04-4.36,10.85-2.91,2.81-6.52,4.21-10.85,4.21h-13.27Zm8.55-30.17V30.69h4.14c2.27,0,4.04-.78,5.32-2.33,1.28-1.55,1.92-3.61,1.92-6.17v-6.66c0-2.54-.64-4.58-1.92-6.13-1.28-1.55-3.05-2.32-5.32-2.32h-4.14Z"/><path class="cls-1" d="M104.79,37.25h-8.5V.53h8.5V37.25Z"/><path class="cls-1" d="M137.18,32.18c-1.25,1.48-3.05,2.78-5.42,3.91-2.37,1.13-5.35,1.69-8.93,1.69-4.54,0-8.23-1.4-11.06-4.19-2.83-2.79-4.25-6.41-4.25-10.87v-7.67c0-4.42,1.38-8.04,4.15-10.85,2.77-2.81,6.33-4.21,10.68-4.21,4.72,0,8.26,1.09,10.62,3.28,2.35,2.19,3.69,5.17,4.01,8.95l-.05,.15h-8c-.29-1.93-.91-3.39-1.88-4.36-.97-.97-2.44-1.46-4.43-1.46s-3.58,.79-4.79,2.36c-1.21,1.57-1.82,3.6-1.82,6.09v7.72c0,2.56,.6,4.61,1.79,6.17,1.19,1.56,2.87,2.33,5.02,2.33,1.56,0,2.79-.13,3.68-.38,.89-.25,1.6-.59,2.12-1.01v-5.28h-5.77v-5.65h14.33v13.27Z"/><path class="cls-1" d="M148.87,37.25h-8.5V.53h8.5V37.25Z"/><path class="cls-1" d="M179.07,7.09h-9.69v30.17h-8.55V7.09h-9.61V.53h27.84V7.09Z"/><path class="cls-1" d="M195.09,30.69h-11.58l-2.07,6.56h-8.58L184.72,.53h9.16l11.88,36.72h-8.58l-2.09-6.56Zm-9.68-6.14h7.79l-3.83-13.14h-.15l-3.81,13.14Z"/><path class="cls-1" d="M216.92,30.69h15.81v6.56h-24.36V.53h8.55V30.69Z"/><path class="cls-1" d="M84.51,70.33c0-1.3-.43-2.3-1.29-3-.86-.7-2.4-1.45-4.62-2.24-4.64-1.46-8.08-3.03-10.32-4.7-2.24-1.67-3.35-4.09-3.35-7.25s1.33-5.56,4-7.46c2.67-1.9,6.05-2.85,10.15-2.85s7.4,1.05,10,3.14c2.6,2.09,3.85,4.79,3.77,8.08l-.05,.15h-8.27c0-1.46-.5-2.65-1.49-3.57-.99-.92-2.36-1.37-4.11-1.37s-3.06,.38-4.04,1.14c-.98,.76-1.46,1.69-1.46,2.8s.49,1.94,1.48,2.59c.98,.65,2.83,1.46,5.54,2.43,4.17,1.24,7.31,2.77,9.42,4.59,2.11,1.82,3.16,4.31,3.16,7.49s-1.26,5.75-3.77,7.58c-2.51,1.83-5.85,2.74-10,2.74s-7.78-1.05-10.82-3.14c-3.04-2.09-4.52-5.11-4.44-9.04l.05-.15h8.3c0,2.12,.57,3.63,1.71,4.54,1.14,.91,2.87,1.36,5.2,1.36,1.77,0,3.08-.35,3.95-1.06,.87-.71,1.3-1.63,1.3-2.77Z"/><path class="cls-1" d="M126.93,80.07h-8.5v-14.78h-13.59v14.78h-8.55V43.34h8.55v15.38h13.59v-15.38h8.5v36.72Z"/><path class="cls-1" d="M161.49,65.01c0,4.52-1.43,8.25-4.3,11.19-2.87,2.94-6.61,4.4-11.24,4.4s-8.43-1.47-11.32-4.4c-2.89-2.93-4.34-6.66-4.34-11.19v-6.61c0-4.51,1.44-8.23,4.33-11.17,2.88-2.94,6.65-4.41,11.29-4.41s8.36,1.47,11.25,4.41c2.89,2.94,4.34,6.67,4.34,11.17v6.61Zm-8.5-6.66c0-2.62-.62-4.77-1.85-6.46-1.24-1.68-2.98-2.52-5.23-2.52s-4.06,.84-5.28,2.51c-1.22,1.67-1.83,3.83-1.83,6.47v6.66c0,2.66,.62,4.83,1.85,6.51,1.24,1.68,3,2.52,5.31,2.52s3.97-.84,5.2-2.52c1.23-1.68,1.84-3.85,1.84-6.51v-6.66Z"/><path class="cls-1" d="M176.55,70.1l.25,1.34h.15l.25-1.23,7.29-26.86h8.93l-11.9,36.72h-9.2l-11.85-36.72h8.9l7.19,26.76Z"/><path class="cls-1" d="M218.34,64.35h-14.4v9.16h16.98v6.56h-25.53V43.34h25.58v6.56h-17.03v7.89h14.4v6.56Z"/><path class="cls-1" d="M232.69,73.51h15.82v6.56h-24.37V43.34h8.55v30.16Z"/></g></g></g></svg>