<svg width="202" height="88" viewBox="0 0 202 88" fill="none" xmlns="http://www.w3.org/2000/svg">
<path d="M42.9909 0H0V28.5775H14.334V14.2887H42.9909V28.5775H57.3249V0H42.9909Z" fill="#F0B429"/>
<path d="M42.991 52.4514L28.4673 66.9403L14.3341 52.8517V35.7164H0.00012207V58.8341H0.0670513L28.4673 87.1447L57.2692 58.4338H57.325V35.7164H42.991V52.4514Z" fill="#F0B429"/>
<g clip-path="url(#clip0_132_612)">
<path d="M22.6657 26.3667C23.6226 26.3667 24.3243 27.1322 24.3243 28.0253C24.3243 28.2167 24.2605 28.4718 24.1967 28.6632L26.4295 31.1512C26.876 30.8322 27.3864 30.577 27.9605 30.5132V24.4529H20.4967L22.2829 26.3667C22.4105 26.3667 22.5381 26.3667 22.6657 26.3667Z" fill="#F0B429"/>
<path d="M27.0036 37.2116L24.7709 39.6995C24.9622 39.9547 25.026 40.2737 25.026 40.5926C25.026 41.4857 24.2605 42.2513 23.3674 42.2513C23.1122 42.2513 22.8571 42.1875 22.6657 42.1237L21.3363 43.5909L20.392 42.6902L21.7726 41.1668C21.7088 40.9754 21.645 40.784 21.645 40.5926C21.645 39.6995 22.4105 38.934 23.3036 38.934C23.4312 38.934 23.5588 38.934 23.6864 38.9978L25.9191 36.4461C25.4088 35.9357 25.0898 35.234 24.9622 34.5323H19.7312V42.0599L28.0243 49.9702V37.5306C27.6415 37.4668 27.3226 37.3392 27.0036 37.2116Z" fill="#F0B429"/>
<path d="M25.6002 32.0443L23.3674 29.5563C23.176 29.6201 22.9209 29.6839 22.6657 29.6839C21.7726 29.6839 21.0071 28.9184 21.0071 28.0253C21.0071 27.7063 21.0709 27.4512 21.2622 27.196L19.7312 25.4098V33.2563H25.0898C25.1536 32.8098 25.345 32.427 25.6002 32.0443Z" fill="#F0B429"/>
<path d="M35.9986 27.8976C35.9986 28.7907 35.2331 29.5562 34.34 29.5562C34.1486 29.5562 34.021 29.5562 33.8935 29.4924L31.7245 31.9166C31.9797 32.2993 32.171 32.7459 32.2986 33.1924H37.5935V25.2821L35.871 27.2597C35.9348 27.4511 35.9986 27.7062 35.9986 27.8976Z" fill="#FFF3C4"/>
<path d="M30.7673 31.0874L32.8725 28.727C32.7449 28.4718 32.6811 28.2167 32.6811 27.8977C32.6811 27.0046 33.4466 26.2391 34.3397 26.2391C34.5949 26.2391 34.7863 26.3029 34.9776 26.3667L36.7638 24.4529H29.3V30.4494C29.8104 30.577 30.3207 30.7684 30.7673 31.0874Z" fill="#FFF3C4"/>
<path d="M31.2779 36.5098L33.5744 39.0615C33.7658 38.9977 33.9572 38.9339 34.2124 38.9339C35.1693 38.9339 35.871 39.6994 35.871 40.5925C35.871 40.9115 35.8072 41.1666 35.6796 41.4218L36.9915 42.6339L35.961 43.6168L34.5951 42.1235C34.4675 42.1873 34.2762 42.1873 34.1486 42.1873C33.1917 42.1873 32.4899 41.4218 32.4899 40.5287C32.4899 40.2735 32.5537 40.0822 32.6175 39.8908L30.2572 37.2115C29.9382 37.3391 29.6831 37.4666 29.3003 37.5304V49.9701L37.5934 42.0597V34.5322H32.2348C32.171 35.2977 31.7882 35.9356 31.2779 36.5098Z" fill="#FFF3C4"/>
</g>
<path d="M77.3703 27.8608H71.2775L71.3153 22.7677H77.3703C78.6279 22.7677 79.6905 22.4659 80.5582 21.8623C81.4385 21.2587 82.105 20.3595 82.5577 19.1649C83.023 17.9576 83.2556 16.4738 83.2556 14.7132V13.5248C83.2556 12.2044 83.1236 11.0475 82.8595 10.054C82.608 9.04799 82.2307 8.21173 81.7277 7.54523C81.2247 6.86616 80.5959 6.35686 79.8414 6.01732C79.0994 5.67779 78.2443 5.50802 77.276 5.50802H71.1644V0.396125H77.276C79.1372 0.396125 80.8411 0.716797 82.3879 1.35814C83.9472 1.98691 85.2928 2.89234 86.4246 4.07442C87.569 5.24394 88.4492 6.63352 89.0654 8.24316C89.6942 9.84024 90.0086 11.6134 90.0086 13.5626V14.7132C90.0086 16.6498 89.6942 18.4229 89.0654 20.0326C88.4492 21.6422 87.5752 23.0318 86.4435 24.2013C85.3117 25.3708 83.9724 26.2763 82.4256 26.9176C80.8914 27.5464 79.2063 27.8608 77.3703 27.8608ZM75.069 0.396125V27.8608H68.4481V0.396125H75.069Z" fill="white"/>
<path d="M98.5649 0.396125V27.8608H91.9628V0.396125H98.5649Z" fill="white"/>
<path d="M123.758 13.1853V24.4654C123.293 24.981 122.576 25.5343 121.608 26.1254C120.652 26.7038 119.445 27.2006 117.986 27.6155C116.528 28.0305 114.811 28.238 112.837 28.238C111.013 28.238 109.36 27.9488 107.876 27.3703C106.392 26.7793 105.115 25.9179 104.046 24.7861C102.99 23.6417 102.173 22.2459 101.594 20.5985C101.028 18.9385 100.745 17.0396 100.745 14.9018V13.3739C100.745 11.2361 101.035 9.33722 101.613 7.67727C102.192 6.01732 103.003 4.62145 104.046 3.48967C105.103 2.34531 106.341 1.47761 107.763 0.886565C109.196 0.295522 110.768 0 112.478 0C115.006 0 117.062 0.402412 118.647 1.20724C120.231 1.99949 121.432 3.09983 122.249 4.50828C123.067 5.90414 123.563 7.52008 123.74 9.35609H117.383C117.257 8.45066 117.018 7.68356 116.666 7.05479C116.326 6.41345 115.836 5.92929 115.195 5.60233C114.553 5.2628 113.723 5.09303 112.705 5.09303C111.912 5.09303 111.189 5.2628 110.535 5.60233C109.894 5.94187 109.347 6.45746 108.894 7.14911C108.442 7.82818 108.089 8.6833 107.838 9.71448C107.599 10.7457 107.48 11.9529 107.48 13.3362V14.9018C107.48 16.2725 107.593 17.4735 107.819 18.5047C108.058 19.5359 108.41 20.3973 108.875 21.0889C109.353 21.768 109.957 22.2836 110.686 22.6357C111.428 22.9752 112.302 23.145 113.308 23.145C114.012 23.145 114.616 23.0884 115.119 22.9752C115.622 22.8495 116.037 22.6986 116.364 22.5225C116.704 22.3339 116.961 22.1578 117.137 21.9943V17.7313H112.535V13.1853H123.758Z" fill="white"/>
<path d="M132.73 0.396125V27.8608H126.128V0.396125H132.73Z" fill="white"/>
<path d="M148.19 0.396125V27.8608H141.569V0.396125H148.19ZM156.452 0.396125V5.50802H133.496V0.396125H156.452Z" fill="white"/>
<path d="M166.668 6.16823L159.972 27.8608H152.86L162.952 0.396125H167.46L166.668 6.16823ZM172.214 27.8608L165.499 6.16823L164.631 0.396125H169.196L179.344 27.8608H172.214ZM171.95 17.6181V22.73H157.859V17.6181H171.95Z" fill="white"/>
<path d="M197.577 22.7677V27.8608H183.694V22.7677H197.577ZM186.052 0.396125V27.8608H179.431V0.396125H186.052Z" fill="white"/>
<path d="M82.5954 53.3227C82.5954 52.8952 82.5325 52.5116 82.4068 52.1721C82.281 51.82 82.0484 51.493 81.7088 51.1912C81.3693 50.8894 80.8789 50.5876 80.2375 50.2858C79.6087 49.9714 78.7788 49.6444 77.7476 49.3049C76.5403 48.9025 75.3771 48.4498 74.2579 47.9468C73.1387 47.4312 72.139 46.8338 71.2587 46.1548C70.3784 45.4631 69.6805 44.6583 69.1649 43.7403C68.6493 42.8097 68.3915 41.7282 68.3915 40.4958C68.3915 39.3138 68.6556 38.2511 69.1837 37.308C69.7119 36.3522 70.4476 35.5411 71.3907 34.8746C72.3465 34.1956 73.4657 33.68 74.7484 33.3279C76.031 32.9632 77.4332 32.7808 78.9548 32.7808C80.9669 32.7808 82.74 33.133 84.2742 33.8372C85.821 34.5288 87.0282 35.516 87.8959 36.7987C88.7762 38.0688 89.2163 39.5715 89.2163 41.307H82.6331C82.6331 40.6153 82.4885 40.0054 82.1993 39.4772C81.9226 38.9491 81.5013 38.5341 80.9354 38.2323C80.3696 37.9305 79.659 37.7796 78.8039 37.7796C77.9739 37.7796 77.276 37.9053 76.7101 38.1568C76.1442 38.4083 75.7167 38.7479 75.4274 39.1754C75.1382 39.5904 74.9936 40.0494 74.9936 40.5524C74.9936 40.9674 75.1068 41.3447 75.3331 41.6842C75.572 42.0112 75.9053 42.3193 76.3329 42.6085C76.773 42.8977 77.3012 43.1744 77.9174 43.4385C78.5461 43.7026 79.2503 43.9604 80.03 44.2119C81.4888 44.6772 82.784 45.199 83.9158 45.7775C85.0602 46.3434 86.0222 46.991 86.8019 47.7204C87.5941 48.4372 88.1914 49.2546 88.5939 50.1726C89.0088 51.0906 89.2163 52.1281 89.2163 53.285C89.2163 54.5174 88.9774 55.6115 88.4995 56.5672C88.0217 57.5229 87.3363 58.334 86.4435 59.0005C85.5506 59.6544 84.4817 60.1512 83.2367 60.4907C81.9918 60.8302 80.6022 61 79.068 61C77.6596 61 76.27 60.8239 74.8993 60.4718C73.5411 60.1072 72.3087 59.5538 71.2021 58.8119C70.0955 58.0574 69.2089 57.0953 68.5424 55.9258C67.8885 54.7438 67.5615 53.3416 67.5615 51.7194H74.2013C74.2013 52.5242 74.3082 53.2033 74.522 53.7566C74.7358 54.3099 75.0502 54.7563 75.4652 55.0959C75.8801 55.4228 76.3894 55.6618 76.9931 55.8127C77.5967 55.951 78.2883 56.0202 79.068 56.0202C79.9105 56.0202 80.5896 55.9007 81.1052 55.6618C81.6208 55.4102 81.9981 55.0833 82.237 54.6809C82.4759 54.2659 82.5954 53.8132 82.5954 53.3227Z" fill="white"/>
<path d="M109.204 44.061V49.154H95.1129V44.061H109.204ZM97.3199 33.1581V60.6227H90.699V33.1581H97.3199ZM113.655 33.1581V60.6227H107.053V33.1581H113.655Z" fill="white"/>
<path d="M139.17 46.3434V47.4563C139.17 49.5564 138.874 51.4427 138.283 53.1152C137.704 54.7752 136.881 56.1962 135.812 57.3783C134.743 58.5478 133.479 59.4469 132.02 60.0757C130.562 60.6919 128.952 61 127.191 61C125.418 61 123.796 60.6919 122.325 60.0757C120.866 59.4469 119.596 58.5478 118.514 57.3783C117.446 56.1962 116.616 54.7752 116.025 53.1152C115.446 51.4427 115.157 49.5564 115.157 47.4563V46.3434C115.157 44.2433 115.446 42.357 116.025 40.6845C116.616 39.0119 117.439 37.5909 118.496 36.4214C119.565 35.2393 120.828 34.3402 122.287 33.724C123.758 33.0952 125.381 32.7808 127.154 32.7808C128.914 32.7808 130.524 33.0952 131.983 33.724C133.454 34.3402 134.724 35.2393 135.793 36.4214C136.862 37.5909 137.692 39.0119 138.283 40.6845C138.874 42.357 139.17 44.2433 139.17 46.3434ZM132.454 47.4563V46.3057C132.454 44.9475 132.335 43.7529 132.096 42.7217C131.87 41.6779 131.53 40.8039 131.077 40.0997C130.625 39.3955 130.065 38.8673 129.398 38.5152C128.745 38.1505 127.996 37.9682 127.154 37.9682C126.273 37.9682 125.506 38.1505 124.852 38.5152C124.199 38.8673 123.652 39.3955 123.211 40.0997C122.771 40.8039 122.438 41.6779 122.212 42.7217C121.998 43.7529 121.891 44.9475 121.891 46.3057V47.4563C121.891 48.8019 121.998 49.9965 122.212 51.0403C122.438 52.0715 122.771 52.9455 123.211 53.6623C123.664 54.3791 124.217 54.9198 124.871 55.2845C125.538 55.6492 126.311 55.8315 127.191 55.8315C128.034 55.8315 128.782 55.6492 129.436 55.2845C130.09 54.9198 130.637 54.3791 131.077 53.6623C131.53 52.9455 131.87 52.0715 132.096 51.0403C132.335 49.9965 132.454 48.8019 132.454 47.4563Z" fill="white"/>
<path d="M150.65 54.1527L156.365 33.1581H163.778L154.517 60.6227H149.725L150.65 54.1527ZM145.462 33.1581L151.178 54.1527L152.14 60.6227H147.292L138.087 33.1581H145.462Z" fill="white"/>
<path d="M182.766 55.5297V60.6227H168.128V55.5297H182.766ZM170.486 33.1581V60.6227H163.865V33.1581H170.486ZM180.88 44.061V48.9842H168.128V44.061H180.88ZM182.822 33.1581V38.27H168.128V33.1581H182.822Z" fill="white"/>
<path d="M201.697 55.5297V60.6227H187.814V55.5297H201.697ZM190.172 33.1581V60.6227H183.551V33.1581H190.172Z" fill="white"/>
<path d="M68.6099 84V71.0117H74.6401C76.1554 71.0117 77.2965 71.3581 78.0635 72.0508C78.8304 72.7373 79.2139 73.7578 79.2139 75.1123V75.1494C79.2139 76.4915 78.8304 77.5059 78.0635 78.1924C77.2965 78.8789 76.1554 79.2222 74.6401 79.2222H71.3467V84H68.6099ZM74.0835 77.3667C74.8875 77.3667 75.4844 77.1873 75.874 76.8286C76.2699 76.4637 76.4678 75.904 76.4678 75.1494V75.1123C76.4678 74.3516 76.2699 73.7887 75.874 73.4238C75.4844 73.0527 74.8875 72.8672 74.0835 72.8672H71.3467V77.3667H74.0835Z" fill="#F7C948"/>
<path d="M81.2961 84V71.0117H86.7604C90.8239 71.0117 92.8556 73.1733 92.8556 77.4966V77.5337C92.8556 81.8446 90.8239 84 86.7604 84H81.2961ZM86.612 82.0796C87.7809 82.0796 88.6437 81.7394 89.2004 81.0591C89.757 80.3726 90.0353 79.3026 90.0353 77.8491V77.1719C90.0353 75.7122 89.757 74.6392 89.2004 73.9526C88.6437 73.2661 87.7809 72.9229 86.612 72.9229H84.0329V82.0796H86.612Z" fill="#F7C948"/>
<path d="M100.81 84.2319C98.8869 84.2319 97.4613 83.8547 96.5336 83.1001C95.6058 82.3394 95.142 81.1611 95.142 79.5654V71.0117H97.8788V79.3428C97.8788 80.3633 98.1169 81.1147 98.5931 81.5972C99.0694 82.0734 99.8085 82.3115 100.81 82.3115C101.806 82.3115 102.539 82.0734 103.009 81.5972C103.479 81.1209 103.714 80.3695 103.714 79.3428V71.0117H106.46V79.5654C106.46 81.1611 105.996 82.3394 105.069 83.1001C104.147 83.8547 102.728 84.2319 100.81 84.2319Z" fill="#F7C948"/>
<path d="M116.878 84L112.341 71.0117H115.254L117.509 77.9976C117.861 79.1047 118.18 80.2612 118.464 81.4673H118.65C118.922 80.286 119.237 79.1294 119.596 77.9976L121.841 71.0117H124.596L120.125 84H116.878Z" fill="#F7C948"/>
<path d="M127.903 84.2412C126.926 84.2412 126.171 84.0216 125.64 83.5825C125.114 83.1434 124.851 82.5218 124.851 81.7178V81.6807C124.851 81.0251 125.027 80.4777 125.38 80.0386C125.732 79.5994 126.227 79.2469 126.864 78.981C127.501 78.7088 128.29 78.4862 129.23 78.313L131.865 77.8306V77.2832C131.865 76.7266 131.704 76.3184 131.382 76.0586C131.067 75.7988 130.572 75.6689 129.898 75.6689C128.463 75.6689 127.746 76.2998 127.746 77.5615C127.746 77.6852 127.749 77.778 127.755 77.8398L125.092 77.6172C125.086 77.5615 125.083 77.4749 125.083 77.3574C125.083 76.2936 125.497 75.4772 126.326 74.9082C127.161 74.333 128.37 74.0454 129.954 74.0454C131.512 74.0454 132.666 74.3145 133.414 74.8525C134.169 75.3844 134.546 76.2039 134.546 77.311V81.7734C134.546 82.0146 134.571 82.1878 134.62 82.293C134.669 82.3981 134.768 82.4692 134.917 82.5063C135.072 82.5435 135.322 82.5651 135.668 82.5713L135.353 84.1763C135.093 84.2196 134.836 84.2412 134.583 84.2412C134.026 84.2412 133.581 84.1855 133.247 84.0742C132.919 83.9629 132.681 83.7959 132.533 83.5732C132.39 83.3444 132.319 83.0444 132.319 82.6733C132.319 82.4136 132.359 82.0765 132.44 81.6621L132.254 81.6157C131.957 82.4445 131.429 83.0908 130.668 83.5547C129.907 84.0124 128.986 84.2412 127.903 84.2412ZM128.979 82.4507C129.493 82.4507 129.969 82.3394 130.408 82.1167C130.853 81.894 131.206 81.5879 131.466 81.1982C131.732 80.8024 131.865 80.3602 131.865 79.8716V79.417L130.148 79.751C129.536 79.8685 129.047 79.9953 128.683 80.1313C128.318 80.2674 128.042 80.4375 127.857 80.6416C127.671 80.8457 127.579 81.1055 127.579 81.4209V81.458C127.579 82.1198 128.045 82.4507 128.979 82.4507Z" fill="#F7C948"/>
<path d="M140.07 84H137.37V71.0117H140.07V84Z" fill="#F7C948"/>
<path d="M145.204 84H142.505V74.2588H145.204V84ZM145.306 73.1084H142.412V71.1602H145.306V73.1084Z" fill="#F7C948"/>
<path d="M151.601 84.1763C150.209 84.1763 149.151 83.7588 148.428 82.9238C147.71 82.0889 147.352 80.8612 147.352 79.2407V79.0088C147.352 77.3883 147.71 76.1637 148.428 75.335C149.151 74.5 150.209 74.0825 151.601 74.0825C152.59 74.0825 153.419 74.3083 154.087 74.7598C154.755 75.2051 155.256 75.8514 155.59 76.6987L155.775 76.6245C155.608 76.0555 155.488 75.5452 155.414 75.0938C155.339 74.6423 155.302 74.1629 155.302 73.6558V71.0117H158.002V84H155.274C155.287 83.4557 155.451 82.6672 155.766 81.6343L155.571 81.5693C155.237 82.4229 154.739 83.0723 154.078 83.5176C153.416 83.9567 152.59 84.1763 151.601 84.1763ZM152.621 82.5063C153.493 82.5063 154.158 82.2311 154.616 81.6807C155.073 81.1302 155.302 80.3324 155.302 79.2871V78.9531C155.302 77.9017 155.073 77.1007 154.616 76.5503C154.158 75.9937 153.493 75.7153 152.621 75.7153C151.786 75.7153 151.152 75.9844 150.719 76.5225C150.292 77.0544 150.079 77.8491 150.079 78.9067V79.3335C150.079 80.3849 150.292 81.1766 150.719 81.7085C151.152 82.2404 151.786 82.5063 152.621 82.5063Z" fill="#F7C948"/>
<path d="M163.081 84.2412C162.103 84.2412 161.349 84.0216 160.817 83.5825C160.291 83.1434 160.028 82.5218 160.028 81.7178V81.6807C160.028 81.0251 160.205 80.4777 160.557 80.0386C160.91 79.5994 161.405 79.2469 162.042 78.981C162.679 78.7088 163.467 78.4862 164.407 78.313L167.042 77.8306V77.2832C167.042 76.7266 166.881 76.3184 166.56 76.0586C166.244 75.7988 165.749 75.6689 165.075 75.6689C163.64 75.6689 162.923 76.2998 162.923 77.5615C162.923 77.6852 162.926 77.778 162.932 77.8398L160.27 77.6172C160.263 77.5615 160.26 77.4749 160.26 77.3574C160.26 76.2936 160.675 75.4772 161.504 74.9082C162.338 74.333 163.548 74.0454 165.131 74.0454C166.69 74.0454 167.843 74.3145 168.591 74.8525C169.346 75.3844 169.723 76.2039 169.723 77.311V81.7734C169.723 82.0146 169.748 82.1878 169.797 82.293C169.847 82.3981 169.946 82.4692 170.094 82.5063C170.249 82.5435 170.499 82.5651 170.846 82.5713L170.53 84.1763C170.271 84.2196 170.014 84.2412 169.76 84.2412C169.204 84.2412 168.758 84.1855 168.424 84.0742C168.097 83.9629 167.859 83.7959 167.71 83.5732C167.568 83.3444 167.497 83.0444 167.497 82.6733C167.497 82.4136 167.537 82.0765 167.617 81.6621L167.432 81.6157C167.135 82.4445 166.606 83.0908 165.845 83.5547C165.085 84.0124 164.163 84.2412 163.081 84.2412ZM164.157 82.4507C164.67 82.4507 165.146 82.3394 165.586 82.1167C166.031 81.894 166.383 81.5879 166.643 81.1982C166.909 80.8024 167.042 80.3602 167.042 79.8716V79.417L165.326 79.751C164.713 79.8685 164.225 79.9953 163.86 80.1313C163.495 80.2674 163.22 80.4375 163.034 80.6416C162.849 80.8457 162.756 81.1055 162.756 81.4209V81.458C162.756 82.1198 163.223 82.4507 164.157 82.4507Z" fill="#F7C948"/>
<path d="M176.147 84.2134C175.102 84.2134 174.32 83.9753 173.8 83.499C173.287 83.0228 173.03 82.293 173.03 81.3096V76.0215H171.425V74.2588H173.03V72.0972L175.73 71.4014V74.2588H178.958V76.0215H175.73V80.8643C175.73 81.3652 175.844 81.7301 176.073 81.959C176.308 82.1816 176.676 82.293 177.177 82.293C177.777 82.293 178.368 82.1724 178.949 81.9312L178.801 83.7031C178.454 83.8639 178.052 83.9876 177.595 84.0742C177.137 84.167 176.654 84.2134 176.147 84.2134Z" fill="#F7C948"/>
<path d="M185.698 84.2319C184.566 84.2319 183.598 84.0433 182.794 83.666C181.996 83.2887 181.384 82.729 180.957 81.9868C180.536 81.2446 180.326 80.3354 180.326 79.2593V78.9995C180.326 77.9233 180.536 77.0142 180.957 76.272C181.384 75.5298 181.996 74.9701 182.794 74.5928C183.598 74.2155 184.566 74.0269 185.698 74.0269C186.823 74.0269 187.785 74.2155 188.583 74.5928C189.387 74.9701 189.999 75.5298 190.42 76.272C190.847 77.0142 191.06 77.9233 191.06 78.9995V79.2593C191.06 80.3354 190.847 81.2446 190.42 81.9868C189.999 82.729 189.387 83.2887 188.583 83.666C187.785 84.0433 186.823 84.2319 185.698 84.2319ZM185.698 82.5249C186.533 82.5249 187.173 82.2682 187.618 81.7549C188.07 81.2354 188.295 80.4499 188.295 79.3984V78.8604C188.295 77.8089 188.07 77.0265 187.618 76.5132C187.173 75.9937 186.533 75.7339 185.698 75.7339C184.857 75.7339 184.21 75.9937 183.759 76.5132C183.313 77.0265 183.091 77.8089 183.091 78.8604V79.3984C183.091 80.4499 183.313 81.2354 183.759 81.7549C184.21 82.2682 184.857 82.5249 185.698 82.5249Z" fill="#F7C948"/>
<path d="M193.207 84V74.2588H195.916C195.929 74.599 195.898 74.9391 195.823 75.2793C195.755 75.6133 195.613 76.1019 195.397 76.7451L195.573 76.8286C195.913 76.1421 196.266 75.604 196.631 75.2144C196.995 74.8185 197.422 74.5247 197.911 74.333C198.406 74.1351 199.024 74.0083 199.766 73.9526L200.082 76.1978C198.907 76.2472 198.028 76.3802 197.447 76.5967C196.866 76.8132 196.464 77.175 196.241 77.6821C196.018 78.1893 195.907 78.9438 195.907 79.9458V84H193.207Z" fill="#F7C948"/>
<defs>
<clipPath id="clip0_132_612">
<rect width="17.8621" height="25.5172" fill="white" transform="translate(19.7312 24.453)"/>
</clipPath>
</defs>
</svg>
